<svg aria-hidden="true" style="position: absolute; width: 0; height: 0; overflow: hidden;" version="1.1" xmlns="http://www.w3.org/2000/svg" xmlns:xlink="http://www.w3.org/1999/xlink">
<defs>
<symbol id="icon-antools_logo" viewBox="0 0 29 32">
<path fill="#fff" style="fill: var(--color1, #fff)" d="M15.948 7.907c-0.484 0-0.954 0.060-1.403 0.172 0.289-2.609 1.331-4.989 2.904-6.923 6.256 0.741 11.108 6.065 11.108 12.521v9.202c-0.251 0.014-0.504 0.021-0.759 0.021-5.005 0-9.368-2.757-11.649-6.839h5.569v-2.385c0-3.187-2.583-5.77-5.77-5.77z"></path>
<path fill="#fff" style="fill: var(--color1, #fff)" d="M0.373 14.474c0-7.747 6.28-14.026 14.026-14.026 3.873 0 7.38 1.57 9.918 4.108-2.34-2.34-5.503-3.857-9.017-4.080-2.364 2.616-3.803 6.083-3.803 9.887 0 0.284 0.008 0.566 0.024 0.845-0.904 0.798-1.475 1.965-1.475 3.266v0.967l2.348 0c2.070 5.645 7.492 9.673 13.854 9.673 0.739 0 1.466-0.054 2.176-0.159v5.963h-9.673v-5.804h-8.706v5.804h-9.673v-16.445z"></path>
</symbol>
<symbol id="icon-button_left" viewBox="0 0 26 32">
<path d="M2.56 0h20.48c1.414 0 2.56 1.146 2.56 2.56v26.88c0 1.414-1.146 2.56-2.56 2.56h-20.48c-1.414 0-2.56-1.146-2.56-2.56v-26.88c0-1.414 1.146-2.56 2.56-2.56z"></path>
<path fill="none" stroke="#fff" style="stroke: var(--color1, #fff)" stroke-linejoin="round" stroke-linecap="round" stroke-miterlimit="4" stroke-width="0.96" d="M14.72 19.84l-3.84-3.84 3.84-3.84"></path>
</symbol>
<symbol id="icon-button_right" viewBox="0 0 26 32">
<path d="M23.040 0h-20.48c-1.414 0-2.56 1.146-2.56 2.56v26.88c0 1.414 1.146 2.56 2.56 2.56h20.48c1.414 0 2.56-1.146 2.56-2.56v-26.88c0-1.414-1.146-2.56-2.56-2.56z"></path>
<path fill="none" stroke="#ff6e30" style="stroke: var(--color2, #ff6e30)" stroke-linejoin="round" stroke-linecap="round" stroke-miterlimit="4" stroke-width="0.96" d="M11.2 19.84l3.84-3.84-3.84-3.84"></path>
</symbol>
<symbol id="icon-diamond_logo" viewBox="0 0 36 32">
<path fill="#fdb300" style="fill: var(--color3, #fdb300)" d="M17.965 0l-10.126 1.051-7.839 10.333 17.965 20.541 17.965-20.541-7.839-10.333-10.126-1.051z"></path>
<path fill="#eb6c00" style="fill: var(--color4, #eb6c00)" d="M0 11.384l17.965 20.541-10.688-20.541h-7.277z"></path>
<path fill="#eb6c00" style="fill: var(--color4, #eb6c00)" d="M28.653 11.384l-10.688 20.541 17.965-20.541h-7.277z"></path>
<path fill="#fdad00" style="fill: var(--color5, #fdad00)" d="M7.277 11.384l10.688 20.541 10.688-20.541h-21.377z"></path>
<path fill="#fdd231" style="fill: var(--color6, #fdd231)" d="M7.839 1.051l-0.563 10.333 10.688-11.384-10.126 1.051z"></path>
<path fill="#fdd231" style="fill: var(--color6, #fdd231)" d="M28.653 11.384l-0.562-10.333-10.126-1.051 10.688 11.384z"></path>
<path fill="#fdad00" style="fill: var(--color5, #fdad00)" d="M28.653 11.384h7.277l-7.839-10.333 0.563 10.333z"></path>
<path fill="#fdad00" style="fill: var(--color5, #fdad00)" d="M0 11.384h7.277l0.563-10.333-7.839 10.333z"></path>
<path fill="#feeeb7" style="fill: var(--color7, #feeeb7)" d="M17.965 0l-10.688 11.384h21.377l-10.688-11.384z"></path>
</symbol>
<symbol id="icon-facebook_logo" viewBox="0 0 32 32">
<path fill="#1e252b" style="fill: var(--color8, #1e252b)" d="M4.414 0h23.172c2.438 0 4.414 1.976 4.414 4.414v23.172c0 2.438-1.976 4.414-4.414 4.414h-23.172c-2.438 0-4.414-1.976-4.414-4.414v-23.172c0-2.438 1.976-4.414 4.414-4.414z"></path>
<path fill="#fff" style="fill: var(--color1, #fff)" opacity="0.78" d="M17.092 23.032v-6.406h2.161l0.321-2.508h-2.482v-1.598c0-0.724 0.202-1.219 1.24-1.219h1.316v-2.236c-0.64-0.069-1.284-0.102-1.928-0.099-1.91 0-3.222 1.166-3.222 3.307v1.841h-2.147v2.508h2.152v6.411h2.589z"></path>
</symbol>
<symbol id="icon-figma_logo" viewBox="0 0 32 32">
<path fill="#19bcfe" style="fill: var(--color9, #19bcfe)" opacity="0.78" d="M21.333 21.333c2.945 0 5.333-2.388 5.333-5.333s-2.388-5.333-5.333-5.333c-2.946 0-5.333 2.388-5.333 5.333s2.388 5.333 5.333 5.333z"></path>
<path fill="#09cf83" style="fill: var(--color10, #09cf83)" opacity="0.78" d="M10.667 32c1.415 0 2.771-0.562 3.771-1.562s1.562-2.357 1.562-3.771v-5.333h-5.333c-1.415 0-2.771 0.562-3.771 1.562s-1.562 2.357-1.562 3.771c0 1.415 0.562 2.771 1.562 3.771s2.357 1.562 3.771 1.562z"></path>
<path fill="#a259ff" style="fill: var(--color11, #a259ff)" opacity="0.78" d="M10.667 21.333h5.333v-10.667h-5.333c-1.415 0-2.771 0.562-3.771 1.562s-1.562 2.357-1.562 3.771c0 1.415 0.562 2.771 1.562 3.771s2.357 1.562 3.771 1.562z"></path>
<path fill="#f24e1e" style="fill: var(--color12, #f24e1e)" opacity="0.78" d="M10.667 10.667h5.333v-10.667h-5.333c-1.415 0-2.771 0.562-3.771 1.562s-1.562 2.357-1.562 3.771c0 1.414 0.562 2.771 1.562 3.771s2.357 1.562 3.771 1.562z"></path>
<path fill="#ff7262" style="fill: var(--color13, #ff7262)" opacity="0.78" d="M21.333 10.667h-5.333v-10.667h5.333c1.414 0 2.771 0.562 3.771 1.562s1.562 2.357 1.562 3.771c0 1.414-0.562 2.771-1.562 3.771s-2.357 1.562-3.771 1.562z"></path>
</symbol>
<symbol id="icon-folder" viewBox="0 0 32 32">
<path fill="#1e252b" style="fill: var(--color8, #1e252b)" d="M6.095 0h19.81c3.366 0 6.095 2.729 6.095 6.095v19.81c0 3.366-2.729 6.095-6.095 6.095h-19.81c-3.366 0-6.095-2.729-6.095-6.095v-19.81c0-3.366 2.729-6.095 6.095-6.095z"></path>
<path fill="#fff" style="fill: var(--color1, #fff)" opacity="0.38" d="M17.905 17.714h-0.952v-0.952c0-0.253-0.1-0.495-0.279-0.673s-0.421-0.279-0.673-0.279c-0.253 0-0.495 0.1-0.673 0.279s-0.279 0.421-0.279 0.673v0.952h-0.952c-0.253 0-0.495 0.1-0.673 0.279s-0.279 0.421-0.279 0.673c0 0.253 0.1 0.495 0.279 0.673s0.421 0.279 0.673 0.279h0.952v0.952c0 0.253 0.1 0.495 0.279 0.673s0.421 0.279 0.673 0.279c0.253 0 0.495-0.1 0.673-0.279s0.279-0.421 0.279-0.673v-0.952h0.952c0.253 0 0.495-0.1 0.673-0.279s0.279-0.421 0.279-0.673c0-0.253-0.1-0.495-0.279-0.673s-0.421-0.279-0.673-0.279z"></path>
<path fill="#fff" style="fill: var(--color1, #fff)" opacity="0.38" d="M23.143 12.048h-6.667l-2.505-3.029c-0.089-0.109-0.2-0.197-0.327-0.258s-0.266-0.093-0.406-0.094h-4.381c-0.622-0.008-1.222 0.232-1.668 0.665s-0.702 1.027-0.712 1.649v11.562c0.010 0.622 0.266 1.215 0.712 1.649s1.046 0.673 1.668 0.665h14.286c0.622 0.008 1.222-0.232 1.669-0.665s0.702-1.027 0.712-1.649v-8.181c-0.010-0.622-0.266-1.215-0.712-1.649s-1.046-0.673-1.669-0.665zM23.619 22.524c-0.004 0.058-0.019 0.116-0.045 0.168s-0.062 0.099-0.107 0.137c-0.044 0.038-0.096 0.067-0.152 0.085s-0.115 0.024-0.173 0.019h-14.286c-0.058 0.005-0.117-0.001-0.173-0.019s-0.107-0.047-0.152-0.085-0.081-0.085-0.107-0.137c-0.026-0.052-0.041-0.11-0.045-0.168v-11.543c0.004-0.058 0.019-0.116 0.045-0.168s0.062-0.099 0.107-0.137 0.096-0.067 0.152-0.085c0.056-0.018 0.114-0.024 0.173-0.019h3.933l2.476 3.029c0.089 0.109 0.2 0.197 0.327 0.258s0.266 0.093 0.406 0.094h7.143c0.058-0.005 0.117 0.001 0.173 0.019s0.107 0.047 0.152 0.085 0.081 0.085 0.107 0.137c0.026 0.052 0.041 0.11 0.045 0.168v8.162z"></path>
</symbol>
<symbol id="icon-footer_logo" viewBox="0 0 32 32">
<path fill="#ff6e30" style="fill: var(--color2, #ff6e30)" d="M6.737 0h18.526c3.721 0 6.737 3.016 6.737 6.737v18.526c0 3.721-3.016 6.737-6.737 6.737h-18.526c-3.721 0-6.737-3.016-6.737-6.737v-18.526c0-3.721 3.016-6.737 6.737-6.737z"></path>
<path fill="#fff" style="fill: var(--color1, #fff)" d="M16.812 10.472c-0.28 0-0.552 0.035-0.812 0.1 0.167-1.51 0.77-2.889 1.681-4.008 3.622 0.429 6.431 3.511 6.431 7.249v5.328c-0.145 0.008-0.292 0.012-0.44 0.012-2.897 0-5.423-1.596-6.744-3.959h3.224v-1.381c0-1.845-1.496-3.341-3.341-3.341z"></path>
<path fill="#fff" style="fill: var(--color1, #fff)" d="M7.795 14.274c0-4.485 3.636-8.12 8.12-8.12 2.242 0 4.273 0.909 5.742 2.378-1.355-1.355-3.186-2.233-5.22-2.362-1.369 1.515-2.202 3.522-2.202 5.724 0 0.164 0.005 0.327 0.014 0.489-0.524 0.462-0.854 1.138-0.854 1.891v0.56l1.36 0c1.198 3.268 4.337 5.6 8.021 5.6 0.428 0 0.849-0.032 1.26-0.092v3.452h-5.6v-3.36h-5.040v3.36h-5.6v-9.521z"></path>
</symbol>
<symbol id="icon-heart_gray" viewBox="0 0 32 32">
<path d="M6.095 0h19.81c3.366 0 6.095 2.729 6.095 6.095v19.81c0 3.366-2.729 6.095-6.095 6.095h-19.81c-3.366 0-6.095-2.729-6.095-6.095v-19.81c0-3.366 2.729-6.095 6.095-6.095z"></path>
<path opacity="0.38" d="M20.444 9.333c-1.867 0-3.511 0.933-4.444 2.4-0.933-1.467-2.578-2.4-4.444-2.4-2.933 0-5.333 2.4-5.333 5.333 0 5.289 9.778 10.667 9.778 10.667s9.778-5.333 9.778-10.667c0-2.933-2.4-5.333-5.333-5.333z"></path>
</symbol>
<symbol id="icon-instagram_logo" viewBox="0 0 32 32">
<path fill="#1e252b" style="fill: var(--color8, #1e252b)" d="M4.414 0h23.172c2.438 0 4.414 1.976 4.414 4.414v23.172c0 2.438-1.976 4.414-4.414 4.414h-23.172c-2.438 0-4.414-1.976-4.414-4.414v-23.172c0-2.438 1.976-4.414 4.414-4.414z"></path>
<path fill="#fff" style="fill: var(--color1, #fff)" opacity="0.78" d="M15.999 12.174c-1.015 0-1.988 0.403-2.706 1.121s-1.121 1.691-1.121 2.706c0 1.015 0.403 1.988 1.121 2.706s1.691 1.121 2.706 1.121 1.988-0.403 2.706-1.121c0.718-0.718 1.121-1.691 1.121-2.706s-0.403-1.988-1.121-2.706c-0.718-0.718-1.691-1.121-2.706-1.121zM15.999 18.486c-0.659 0-1.292-0.262-1.758-0.728s-0.728-1.099-0.728-1.758c0-0.659 0.262-1.292 0.728-1.758s1.099-0.728 1.758-0.728 1.292 0.262 1.758 0.728c0.466 0.466 0.728 1.099 0.728 1.758s-0.262 1.292-0.728 1.758c-0.466 0.466-1.099 0.728-1.758 0.728z"></path>
<path fill="#fff" style="fill: var(--color1, #fff)" opacity="0.78" d="M19.977 12.926c0.493 0 0.892-0.399 0.892-0.892s-0.399-0.892-0.892-0.892-0.892 0.399-0.892 0.892c0 0.493 0.399 0.892 0.892 0.892z"></path>
<path fill="#fff" style="fill: var(--color1, #fff)" opacity="0.78" d="M23.062 11.126c-0.192-0.495-0.484-0.944-0.86-1.319s-0.825-0.668-1.319-0.859c-0.579-0.217-1.191-0.335-1.809-0.348-0.797-0.035-1.049-0.045-3.070-0.045s-2.28 0-3.070 0.045c-0.618 0.012-1.229 0.13-1.807 0.348-0.495 0.191-0.944 0.484-1.32 0.859s-0.668 0.825-0.859 1.319c-0.217 0.579-0.335 1.191-0.347 1.809-0.036 0.796-0.046 1.049-0.046 3.070s0 2.278 0.046 3.070c0.012 0.619 0.129 1.23 0.347 1.81 0.192 0.495 0.485 0.944 0.86 1.319s0.825 0.668 1.32 0.859c0.577 0.226 1.189 0.352 1.808 0.372 0.797 0.035 1.049 0.046 3.070 0.046s2.28 0 3.070-0.046c0.618-0.013 1.23-0.13 1.809-0.347 0.495-0.192 0.944-0.485 1.319-0.86s0.668-0.824 0.86-1.319c0.218-0.579 0.334-1.19 0.347-1.809 0.036-0.796 0.046-1.049 0.046-3.070s0-2.278-0.046-3.070c-0.010-0.627-0.128-1.248-0.348-1.835zM22.054 19.015c-0.005 0.477-0.092 0.949-0.257 1.397-0.124 0.322-0.315 0.614-0.559 0.858s-0.536 0.434-0.858 0.558c-0.443 0.164-0.91 0.251-1.382 0.257-0.786 0.036-1.008 0.046-3.024 0.046-2.018 0-2.224 0-3.025-0.046-0.472-0.006-0.939-0.093-1.381-0.257-0.323-0.123-0.617-0.313-0.862-0.557s-0.436-0.537-0.561-0.859c-0.163-0.443-0.25-0.91-0.257-1.381-0.036-0.786-0.044-1.008-0.044-3.024s0-2.223 0.044-3.025c0.005-0.477 0.092-0.949 0.257-1.396 0.252-0.653 0.77-1.167 1.423-1.417 0.442-0.164 0.91-0.251 1.381-0.257 0.787-0.036 1.008-0.046 3.025-0.046s2.224 0 3.024 0.046c0.472 0.006 0.94 0.093 1.382 0.257 0.322 0.124 0.614 0.315 0.858 0.559s0.434 0.536 0.559 0.858c0.163 0.443 0.25 0.91 0.257 1.381 0.036 0.787 0.045 1.008 0.045 3.025s0 2.233-0.036 3.024h-0.009v-0.001z"></path>
</symbol>
<symbol id="icon-invision_logo" viewBox="0 0 33 32">
<path fill="#f06" style="fill: var(--color14, #f06)" opacity="0.78" d="M0 2c0-1.105 0.895-2 2-2h28.5c1.105 0 2 0.895 2 2v27.912c0 1.105-0.895 2-2 2h-28.5c-1.105 0-2-0.895-2-2v-27.912z"></path>
<path fill="#fff" style="fill: var(--color1, #fff)" opacity="0.78" d="M11.059 10.269c1.028-0.015 1.851-0.842 1.841-1.852s-0.849-1.821-1.877-1.816-1.859 0.824-1.859 1.834c0.001 0.243 0.051 0.483 0.147 0.707s0.236 0.427 0.412 0.598 0.385 0.305 0.614 0.396c0.229 0.091 0.475 0.136 0.722 0.134v-0z"></path>
<path fill="#fff" style="fill: var(--color1, #fff)" opacity="0.78" d="M7.129 20.089c-0.108 0.452-0.164 0.914-0.168 1.377 0 1.615 0.892 2.687 2.787 2.687 1.572 0 2.847-0.916 3.764-2.397l-0.56 2.208h3.12l1.785-7.021c0.446-1.779 1.309-2.702 2.619-2.702 1.031 0 1.672 0.629 1.672 1.67 0.005 0.333-0.042 0.666-0.139 0.985l-0.919 3.228c-0.131 0.445-0.197 0.905-0.195 1.368 0 1.532 0.919 2.655 2.842 2.655 1.645 0 2.955-1.039 3.679-3.529l-1.226-0.466c-0.614 1.67-1.143 1.971-1.56 1.971s-0.642-0.273-0.642-0.821c0.012-0.287 0.059-0.572 0.139-0.849l0.893-3.146c0.201-0.647 0.304-1.319 0.307-1.995 0-2.354-1.45-3.582-3.206-3.582-1.645 0-3.316 1.456-4.152 2.989l0.612-2.752h-4.765l-0.669 2.425h2.231l-1.373 5.392c-1.079 2.354-3.060 2.392-3.309 2.337-0.408-0.091-0.668-0.243-0.668-0.766 0.012-0.424 0.077-0.844 0.195-1.252l2.090-8.143h-5.294l-0.668 2.425h2.201l-1.424 5.702z"></path>
</symbol>
<symbol id="icon-notion_logo" viewBox="0 0 32 32">
<path fill="#fff" style="fill: var(--color1, #fff)" opacity="0.78" d="M5.716 29.218l-3.439-4.285c-0.828-1.031-1.277-2.299-1.277-3.603v-15.515c0-1.954 1.564-3.576 3.581-3.714l15.951-1.089c1.159-0.079 2.311 0.229 3.263 0.873l5.605 3.789c1.003 0.678 1.601 1.787 1.601 2.97v17.639c0 1.913-1.537 3.496-3.512 3.618l-17.704 1.090c-1.576 0.097-3.099-0.567-4.067-1.773z"></path>
<path fill="#000" style="fill: var(--color15, #000)" opacity="0.78" d="M11.248 13.579v-0.203c0-0.515 0.412-0.942 0.944-0.977l3.871-0.258 5.354 7.884v-6.919l-1.378-0.184v-0.097c0-0.521 0.422-0.951 0.96-0.978l3.523-0.18v0.507c0 0.238-0.177 0.441-0.419 0.482l-0.848 0.143v11.206l-1.064 0.366c-0.889 0.306-1.878-0.022-2.387-0.789l-5.198-7.843v7.486l1.6 0.306-0.022 0.148c-0.070 0.465-0.471 0.816-0.957 0.838l-3.979 0.177c-0.053-0.5 0.322-0.947 0.839-1.001l0.523-0.055v-9.981l-1.362-0.077z"></path>
<path fill="#000" style="fill: var(--color15, #000)" opacity="0.78" d="M20.675 2.967l-15.951 1.089c-0.955 0.065-1.696 0.833-1.696 1.759v15.515c0 0.87 0.299 1.715 0.851 2.402l3.439 4.285c0.556 0.693 1.431 1.074 2.337 1.018l17.704-1.090c0.907-0.056 1.614-0.783 1.614-1.662v-17.639c0-0.544-0.275-1.053-0.735-1.365l-5.605-3.789c-0.571-0.386-1.262-0.571-1.958-0.523zM5.515 6.057c-0.222-0.164-0.116-0.506 0.162-0.526l15.105-1.083c0.481-0.035 0.959 0.098 1.349 0.374l3.031 2.147c0.115 0.082 0.061 0.258-0.081 0.265l-15.996 0.87c-0.484 0.026-0.962-0.116-1.347-0.401l-2.223-1.646zM8.334 10.831c0-0.52 0.42-0.949 0.957-0.978l16.913-0.921c0.523-0.028 0.964 0.374 0.964 0.88v15.273c0 0.519-0.418 0.948-0.954 0.978l-16.806 0.956c-0.582 0.033-1.073-0.414-1.073-0.978v-15.211z"></path>
</symbol>
<symbol id="icon-search" viewBox="0 0 33 32">
<path fill="none" stroke="#fff" style="stroke: var(--color1, #fff)" stroke-linejoin="round" stroke-linecap="round" stroke-miterlimit="4" stroke-width="2.6667" d="M14.667 25.333c5.891 0 10.667-4.776 10.667-10.667s-4.776-10.667-10.667-10.667c-5.891 0-10.667 4.776-10.667 10.667s4.776 10.667 10.667 10.667z"></path>
<path fill="none" stroke="#fff" style="stroke: var(--color1, #fff)" stroke-linejoin="round" stroke-linecap="round" stroke-miterlimit="4" stroke-width="2.6667" d="M28 28l-5.8-5.8"></path>
</symbol>
<symbol id="icon-slack_logo" viewBox="0 0 33 32">
<path fill="#e01e5a" style="fill: var(--color16, #e01e5a)" opacity="0.78" d="M6.836 20.11c0 0.439-0.088 0.874-0.259 1.28s-0.422 0.774-0.738 1.085c-0.316 0.311-0.692 0.557-1.105 0.724s-0.856 0.254-1.304 0.253c-0.447 0-0.89-0.086-1.303-0.254s-0.788-0.414-1.104-0.725c-0.316-0.31-0.567-0.679-0.738-1.085s-0.259-0.84-0.258-1.279c-0-0.439 0.087-0.874 0.258-1.28s0.422-0.774 0.738-1.085c0.316-0.311 0.692-0.557 1.105-0.725s0.856-0.254 1.303-0.254h3.406v3.343h-0.001zM8.538 20.11c-0-0.439 0.087-0.874 0.258-1.28s0.422-0.774 0.738-1.085c0.316-0.311 0.692-0.557 1.105-0.725s0.856-0.254 1.303-0.254c0.447-0 0.89 0.086 1.303 0.254s0.789 0.414 1.105 0.725c0.316 0.31 0.567 0.679 0.738 1.085s0.259 0.841 0.258 1.28v8.358c0 0.439-0.087 0.874-0.258 1.28s-0.422 0.774-0.738 1.085-0.692 0.557-1.105 0.725c-0.413 0.168-0.856 0.254-1.303 0.254s-0.89-0.086-1.303-0.254-0.789-0.414-1.105-0.725c-0.316-0.31-0.567-0.679-0.738-1.085s-0.259-0.841-0.258-1.28v-8.358z"></path>
<path fill="#36c5f0" style="fill: var(--color17, #36c5f0)" opacity="0.78" d="M11.942 6.687c-0.447 0-0.89-0.086-1.304-0.254s-0.789-0.414-1.105-0.725c-0.316-0.311-0.567-0.679-0.738-1.085s-0.259-0.841-0.258-1.28c-0-0.439 0.088-0.874 0.258-1.28s0.422-0.774 0.738-1.085c0.316-0.31 0.692-0.557 1.105-0.725s0.856-0.254 1.303-0.254c0.447-0 0.89 0.086 1.303 0.254s0.789 0.414 1.105 0.725c0.316 0.31 0.567 0.679 0.738 1.085s0.259 0.841 0.258 1.28v3.345l-3.404-0.001zM11.942 8.383c0.447-0 0.89 0.086 1.303 0.254s0.789 0.414 1.105 0.725c0.316 0.31 0.567 0.679 0.738 1.085s0.259 0.841 0.258 1.28c0 0.439-0.087 0.874-0.258 1.28s-0.422 0.774-0.738 1.085c-0.316 0.31-0.692 0.557-1.105 0.725s-0.856 0.254-1.303 0.254h-8.538c-0.447 0-0.89-0.086-1.303-0.254s-0.788-0.414-1.105-0.724c-0.316-0.31-0.567-0.679-0.738-1.084s-0.259-0.84-0.259-1.279c-0-0.439 0.087-0.874 0.258-1.28s0.422-0.774 0.738-1.085 0.692-0.557 1.105-0.725c0.413-0.168 0.856-0.254 1.303-0.254l8.538-0.001z"></path>
<path fill="#2eb67d" style="fill: var(--color18, #2eb67d)" opacity="0.78" d="M25.587 11.726c-0-0.439 0.087-0.874 0.259-1.28s0.422-0.774 0.738-1.085c0.316-0.31 0.692-0.557 1.105-0.724s0.856-0.254 1.304-0.253c0.447-0 0.89 0.086 1.303 0.254s0.789 0.414 1.105 0.725c0.316 0.31 0.567 0.679 0.738 1.085s0.259 0.841 0.258 1.28c0 0.439-0.087 0.874-0.258 1.28s-0.422 0.774-0.738 1.085c-0.316 0.31-0.692 0.557-1.105 0.725s-0.856 0.254-1.303 0.254h-3.406v-3.343zM23.885 11.726c0 0.439-0.087 0.874-0.258 1.28s-0.422 0.774-0.738 1.085c-0.316 0.31-0.692 0.557-1.105 0.725s-0.856 0.254-1.303 0.254c-0.447 0.001-0.89-0.086-1.304-0.253s-0.789-0.414-1.105-0.724c-0.316-0.31-0.567-0.679-0.738-1.085s-0.259-0.841-0.259-1.28v-8.383c-0-0.439 0.087-0.874 0.259-1.28s0.422-0.774 0.738-1.085c0.316-0.31 0.692-0.557 1.105-0.724s0.856-0.254 1.304-0.253c0.447-0 0.89 0.086 1.303 0.254s0.789 0.414 1.105 0.725c0.316 0.31 0.567 0.679 0.738 1.085s0.259 0.841 0.258 1.28v8.383z"></path>
<path fill="#ecb22e" style="fill: var(--color19, #ecb22e)" opacity="0.78" d="M20.48 25.124c0.447-0 0.89 0.086 1.303 0.254s0.789 0.414 1.105 0.725c0.316 0.311 0.567 0.679 0.738 1.085s0.259 0.841 0.258 1.28c0.001 0.439-0.087 0.874-0.258 1.28s-0.422 0.775-0.738 1.085c-0.316 0.311-0.692 0.557-1.105 0.725s-0.856 0.254-1.304 0.254c-0.447 0-0.89-0.086-1.304-0.254s-0.789-0.414-1.105-0.725c-0.316-0.311-0.567-0.679-0.738-1.085s-0.259-0.841-0.258-1.28v-3.343h3.404zM20.48 23.452c-0.447 0-0.89-0.086-1.303-0.254s-0.789-0.414-1.105-0.725c-0.316-0.311-0.567-0.679-0.738-1.085s-0.259-0.841-0.258-1.28c-0-0.439 0.087-0.874 0.258-1.28s0.422-0.774 0.738-1.085c0.316-0.311 0.692-0.557 1.105-0.725s0.856-0.254 1.303-0.254h8.538c0.447-0 0.89 0.086 1.303 0.254s0.789 0.414 1.105 0.725c0.316 0.31 0.567 0.679 0.738 1.085s0.259 0.841 0.258 1.28c0 0.439-0.087 0.874-0.258 1.28s-0.422 0.774-0.738 1.085c-0.316 0.31-0.692 0.557-1.105 0.725s-0.856 0.254-1.303 0.254h-8.538z"></path>
</symbol>
<symbol id="icon-twitter_logo" viewBox="0 0 32 32">
<path fill="#1e252b" style="fill: var(--color8, #1e252b)" d="M4.414 0h23.172c2.438 0 4.414 1.976 4.414 4.414v23.172c0 2.438-1.976 4.414-4.414 4.414h-23.172c-2.438 0-4.414-1.976-4.414-4.414v-23.172c0-2.438 1.976-4.414 4.414-4.414z"></path>
<path fill="#fff" style="fill: var(--color1, #fff)" opacity="0.78" d="M22.317 12.687c0.011 0.145 0.011 0.289 0.011 0.433 0 4.407-3.354 9.485-9.484 9.485-1.889 0-3.643-0.547-5.119-1.497 0.268 0.031 0.526 0.041 0.805 0.041 1.5 0.004 2.958-0.498 4.139-1.424-0.696-0.013-1.37-0.242-1.929-0.657s-0.974-0.993-1.189-1.655c0.206 0.031 0.413 0.051 0.63 0.051 0.299 0 0.599-0.041 0.878-0.113-0.755-0.152-1.434-0.562-1.921-1.158s-0.753-1.343-0.752-2.113v-0.041c0.444 0.247 0.96 0.402 1.506 0.423-0.458-0.304-0.833-0.717-1.092-1.201s-0.395-1.025-0.394-1.575c0-0.619 0.165-1.187 0.454-1.682 0.838 1.030 1.882 1.873 3.066 2.474s2.481 0.946 3.807 1.014c-0.051-0.248-0.083-0.506-0.083-0.764-0-0.438 0.086-0.871 0.253-1.276s0.413-0.772 0.723-1.082c0.31-0.31 0.677-0.555 1.082-0.723s0.838-0.254 1.276-0.253c0.96 0 1.826 0.402 2.436 1.053 0.746-0.144 1.462-0.417 2.115-0.805-0.249 0.77-0.77 1.424-1.466 1.837 0.662-0.076 1.309-0.25 1.919-0.516-0.456 0.665-1.021 1.247-1.671 1.724z"></path>
</symbol>
<symbol id="icon-visual_cod_logo" viewBox="0 0 33 32">
<path fill="#0065a9" style="fill: var(--color20, #0065a9)" opacity="0.78" d="M31.744 3.377l-6.776-3.179c-0.383-0.18-0.813-0.239-1.232-0.169s-0.805 0.264-1.105 0.556l-22.183 19.708c-0.597 0.53-0.596 1.445 0.002 1.975l1.812 1.605c0.237 0.21 0.541 0.332 0.861 0.346s0.634-0.082 0.889-0.27l26.713-19.747c0.896-0.662 2.183-0.040 2.183 1.056v-0.077c0-0.377-0.109-0.746-0.315-1.066s-0.5-0.575-0.849-0.739z"></path>
<path fill="#007acc" style="fill: var(--color21, #007acc)" opacity="0.78" d="M31.744 28.503l-6.776 3.179c-0.383 0.179-0.813 0.239-1.232 0.169s-0.805-0.264-1.105-0.556l-22.183-19.708c-0.597-0.53-0.596-1.445 0.002-1.975l1.812-1.605c0.237-0.21 0.541-0.332 0.861-0.346s0.634 0.082 0.889 0.27l26.713 19.747c0.896 0.662 2.183 0.040 2.183-1.057v0.077c0 0.377-0.109 0.746-0.315 1.066s-0.5 0.575-0.849 0.739z"></path>
<path fill="#1f9cf0" style="fill: var(--color22, #1f9cf0)" opacity="0.78" d="M24.946 31.685c-0.383 0.179-0.813 0.238-1.232 0.169s-0.805-0.264-1.105-0.557c0.758 0.739 2.056 0.216 2.056-0.83v-29.051c0-1.045-1.297-1.569-2.056-0.83 0.3-0.293 0.687-0.487 1.105-0.557s0.849-0.010 1.232 0.169l6.775 3.175c0.349 0.163 0.643 0.42 0.849 0.739s0.315 0.689 0.315 1.066v21.526c0 0.77-0.453 1.471-1.165 1.805l-6.775 3.175z"></path>
<path fill="#000" style="fill: var(--color15, #000)" opacity="0.195" d="M23.321 31.744c0.262 0.099 0.542 0.145 0.822 0.135s0.556-0.077 0.809-0.196l6.771-3.175c0.349-0.164 0.643-0.42 0.849-0.739s0.315-0.689 0.315-1.066v-21.526c0-0.377-0.109-0.747-0.315-1.066s-0.5-0.575-0.849-0.739l-6.771-3.175c-0.383-0.179-0.813-0.238-1.231-0.169s-0.805 0.264-1.105 0.557l-12.962 11.523-5.646-4.176c-0.255-0.188-0.569-0.284-0.888-0.27s-0.624 0.136-0.86 0.346l-1.811 1.605c-0.597 0.529-0.598 1.445-0.002 1.975l4.897 4.353-4.897 4.353c-0.596 0.53-0.596 1.445 0.002 1.975l1.811 1.605c0.236 0.21 0.541 0.332 0.86 0.346s0.634-0.082 0.889-0.27l5.646-4.176 12.962 11.523c0.2 0.196 0.44 0.348 0.705 0.449zM24.671 8.665l-9.835 7.275 9.835 7.275v-14.55z"></path>
</symbol>
</defs>
</svg>
